<svg xmlns="http://www.w3.org/2000/svg" width="31.938" height="31.937" viewBox="0 0 31.938 31.937"><path d="M20.564 28.065H2.419V3.872h18.146v4.123l2.418-2.696V3.916a2.463 2.463 0 0 0-2.463-2.463H2.463A2.463 2.463 0 0 0 0 3.916v24.105a2.464 2.464 0 0 0 2.463 2.464h18.059a2.464 2.464 0 0 0 2.463-2.464v-7.938l-2.42 2.697v5.285h-.001z"/><path d="M18.512 8.308c0-.668-.541-1.209-1.209-1.209H5.667a1.209 1.209 0 1 0 0 2.418h11.635a1.21 1.21 0 0 0 1.21-1.209zm-1.666 3.859H5.667a1.21 1.21 0 0 0 0 2.419h9.008l2.171-2.419zm-4.522 5.01H5.667a1.21 1.21 0 0 0 0 2.42h5.287l1.37-2.42zm-7.866 6.28a1.21 1.21 0 0 0 1.209 1.209h3.872c.015-.173.04-.268.078-.398l.582-2.021H5.667a1.21 1.21 0 0 0-1.209 1.21zM22.615 8.424l-8.447 9.416-.653.729 4.651 4.171.652-.729 8.447-9.416.762-.85-4.649-4.171-.763.85zm-.402 4.253l-5.539 6.174a.385.385 0 0 1-.271.13.388.388 0 0 1-.282-.099l-.274-.246a.392.392 0 0 1-.03-.553l5.54-6.176a.39.39 0 0 1 .553-.03l.273.247a.39.39 0 0 1 .03.553zm1.61-2.934l.274.246c.16.144.174.392.029.553l-.07.079-.396.441-.017.018a.382.382 0 0 1-.271.129.381.381 0 0 1-.282-.1l-.275-.246a.39.39 0 0 1-.028-.553l.481-.537a.394.394 0 0 1 .555-.03zm.354-3.059l-.35.39 4.65 4.171.351-.392.79-.881-4.649-4.17zm7.759.111a1.361 1.361 0 0 0-.447-.934l-2.635-2.364a1.356 1.356 0 0 0-1.911.104l-1.555 1.732 4.65 4.169 1.553-1.732c.24-.265.364-.616.345-.975zm-1.993.971l-2.817-2.527.813-.906 2.815 2.526-.811.907zM11.557 25.429a.674.674 0 0 0 .705.121l5.345-2.189-4.648-4.17-1.599 5.551a.671.671 0 0 0 .197.687zm1.828-4.756l2.7 2.424-2.1.861-1.229-1.103.629-2.182z"/></svg>